<?xml version="1.0" encoding="UTF-8" standalone="no"?>
<!DOCTYPE svg PUBLIC "-//W3C//DTD SVG 1.1//EN" "http://www.w3.org/Graphics/SVG/1.1/DTD/svg11.dtd">
<svg version="1.1" xmlns="http://www.w3.org/2000/svg" xmlns:xlink="http://www.w3.org/1999/xlink" preserveAspectRatio="xMidYMid meet" viewBox="0 0 320 420" width="320" height="420"><defs><path d="M163.9 317.09C82.77 318.37 15.82 250.7 14.49 166.07C13.16 81.45 77.96 11.72 159.1 10.45C240.23 9.17 307.18 76.85 308.51 161.47C309.84 246.09 245.04 315.82 163.9 317.09Z" id="e3sQfS1Af7"></path><path d="M162.5 425.61L161.5 325.68" id="c1oliE8KjE"></path><path d="M162.5 415.61L161.5 315.68" id="fc7Wnl6iC"></path><path d="M281.14 125.59C265.24 157.04 215.02 163.71 169.08 140.48C123.14 117.24 98.75 72.84 114.65 41.4C130.56 9.95 180.77 3.28 226.72 26.51C272.66 49.75 297.05 94.15 281.14 125.59Z" id="a2lYiX5s3y"></path></defs><g><g><g><use xlink:href="#e3sQfS1Af7" opacity="1" fill="#009900" fill-opacity="1"></use><g><use xlink:href="#e3sQfS1Af7" opacity="1" fill-opacity="0" stroke="#000000" stroke-width="1" stroke-opacity="0"></use></g></g><g><use xlink:href="#c1oliE8KjE" opacity="1" fill="#02c625" fill-opacity="1"></use><g><use xlink:href="#c1oliE8KjE" opacity="1" fill-opacity="0" stroke="#000000" stroke-width="1" stroke-opacity="0"></use></g></g><g><use xlink:href="#fc7Wnl6iC" opacity="1" fill="#000000" fill-opacity="0"></use><g><use xlink:href="#fc7Wnl6iC" opacity="1" fill-opacity="0" stroke="#009900" stroke-width="20" stroke-opacity="1"></use></g></g><g><use xlink:href="#a2lYiX5s3y" opacity="1" fill="#00ff00" fill-opacity="1"></use></g></g></g></svg>