<?xml version="1.0" encoding="UTF-8" standalone="no"?>
<!DOCTYPE svg PUBLIC "-//W3C//DTD SVG 1.1//EN" "http://www.w3.org/Graphics/SVG/1.1/DTD/svg11.dtd">
<svg version="1.1" xmlns="http://www.w3.org/2000/svg" xmlns:xlink="http://www.w3.org/1999/xlink" preserveAspectRatio="xMidYMid meet" viewBox="0 0 320 420" width="320" height="420"><defs><path d="M163.9 317.09C82.77 318.37 15.82 250.7 14.49 166.07C13.16 81.45 77.96 11.72 159.1 10.45C240.23 9.17 307.18 76.85 308.51 161.47C309.84 246.09 245.04 315.82 163.9 317.09Z" id="d4ofEgHV9O"></path><path d="M162.5 425.61L161.5 325.68" id="c1oliE8KjE"></path><path d="M162.5 415.61L161.5 315.68" id="aqL5k6oKw"></path><path d="M282.14 125.59C266.24 157.04 216.02 163.71 170.08 140.48C124.14 117.24 99.75 72.84 115.65 41.4C131.56 9.95 181.77 3.28 227.72 26.51C273.66 49.75 298.05 94.15 282.14 125.59Z" id="a2iUtXMIDb"></path></defs><g><g><g><use xlink:href="#d4ofEgHV9O" opacity="1" fill="#ff0000" fill-opacity="1"></use><g><use xlink:href="#d4ofEgHV9O" opacity="1" fill-opacity="0" stroke="#000000" stroke-width="1" stroke-opacity="0"></use></g></g><g><use xlink:href="#c1oliE8KjE" opacity="1" fill="#02c625" fill-opacity="1"></use><g><use xlink:href="#c1oliE8KjE" opacity="1" fill-opacity="0" stroke="#000000" stroke-width="1" stroke-opacity="0"></use></g></g><g><use xlink:href="#aqL5k6oKw" opacity="1" fill="#000000" fill-opacity="0"></use><g><use xlink:href="#aqL5k6oKw" opacity="1" fill-opacity="0" stroke="#ff0000" stroke-width="20" stroke-opacity="1"></use></g></g><g><use xlink:href="#a2iUtXMIDb" opacity="1" fill="#ff9999" fill-opacity="1"></use></g></g></g></svg>