<?xml version="1.0" encoding="UTF-8" standalone="no"?>
<!DOCTYPE svg PUBLIC "-//W3C//DTD SVG 1.1//EN" "http://www.w3.org/Graphics/SVG/1.1/DTD/svg11.dtd">
<svg version="1.1" xmlns="http://www.w3.org/2000/svg" xmlns:xlink="http://www.w3.org/1999/xlink" preserveAspectRatio="xMidYMid meet" viewBox="0 0 566 566" width="566" height="566"><defs><path d="M85.91 368.8C88.53 229.3 195.02 172.48 279.6 12.15C369.43 167.22 473.29 264.78 473.29 368.8C473.29 472.82 386.51 557.23 279.6 557.23C172.68 557.23 83.93 472.8 85.91 368.8Z" id="k1tMjrbeJ1"></path><path d="M85.91 368.8C88.53 229.3 195.02 172.48 279.6 12.15C369.43 167.22 473.29 264.78 473.29 368.8C473.29 472.82 386.51 557.23 279.6 557.23C172.68 557.23 83.93 472.8 85.91 368.8Z" id="ba4EEYKEdL"></path><path d="M104.83 367.69C107.21 241.65 203.69 190.31 280.31 45.46C361.7 185.56 455.8 273.71 455.8 367.69C455.8 461.66 377.18 537.94 280.31 537.94C183.45 537.94 103.04 461.65 104.83 367.69Z" id="a1yA9hWN8"></path><path d="M104.83 367.69C107.21 241.65 203.69 190.31 280.31 45.46C361.7 185.56 455.8 273.71 455.8 367.69C455.8 461.66 377.18 537.94 280.31 537.94C183.45 537.94 103.04 461.65 104.83 367.69Z" id="f17hbDXYIC"></path></defs><g><g><g><use xlink:href="#k1tMjrbeJ1" opacity="1" fill="#97d8ff" fill-opacity="1"></use><g><use xlink:href="#k1tMjrbeJ1" opacity="1" fill-opacity="0" stroke="#000000" stroke-width="1" stroke-opacity="0"></use></g></g><g><use xlink:href="#ba4EEYKEdL" opacity="1" fill="#000000" fill-opacity="0"></use><g><use xlink:href="#ba4EEYKEdL" opacity="1" fill-opacity="0" stroke="#000000" stroke-width="0" stroke-opacity="0"></use></g></g><g><use xlink:href="#a1yA9hWN8" opacity="1" fill="#e5f5ff" fill-opacity="1"></use><g><use xlink:href="#a1yA9hWN8" opacity="1" fill-opacity="0" stroke="#000000" stroke-width="1" stroke-opacity="0"></use></g></g><g><use xlink:href="#f17hbDXYIC" opacity="1" fill="#000000" fill-opacity="0"></use><g><use xlink:href="#f17hbDXYIC" opacity="1" fill-opacity="0" stroke="#000000" stroke-width="3" stroke-opacity="0"></use></g></g></g></g></svg>