<?xml version="1.0" encoding="UTF-8" standalone="no"?>
<!DOCTYPE svg PUBLIC "-//W3C//DTD SVG 1.1//EN" "http://www.w3.org/Graphics/SVG/1.1/DTD/svg11.dtd">
<svg version="1.1" xmlns="http://www.w3.org/2000/svg" xmlns:xlink="http://www.w3.org/1999/xlink" preserveAspectRatio="xMidYMid meet" viewBox="0 0 450 640" width="450" height="640"><defs><path d="M225.88 16.15C326.05 189.73 441.85 298.94 441.85 415.37C441.85 531.81 345.09 626.3 225.88 626.3C106.67 626.3 7.71 531.79 9.91 415.37C12.84 259.22 131.57 195.62 225.88 16.15Z" id="gsvGzbw35"></path><path d="M225.88 16.15C326.05 189.73 441.85 298.94 441.85 415.37C441.85 531.81 345.09 626.3 225.88 626.3C106.67 626.3 7.71 531.79 9.91 415.37C12.84 259.22 131.57 195.62 225.88 16.15Z" id="aCbzggpXG"></path><path d="M225.88 16.15C326.05 189.73 441.85 298.94 441.85 415.37C441.85 531.81 345.09 626.3 225.88 626.3C106.67 626.3 7.71 531.79 9.91 415.37C12.84 259.22 131.57 195.62 225.88 16.15Z" id="cwdvurCc2"></path><path d="M244.62 16.15C353.47 194.77 479.32 307.14 479.32 426.96C479.32 546.77 374.17 644 244.62 644C115.06 644 7.52 546.75 9.92 426.96C13.09 266.27 142.13 200.83 244.62 16.15Z" id="afAQyWqaZ"></path><path d="M226.68 53.44C317.43 210.26 422.35 308.93 422.35 414.13C422.35 519.32 334.69 604.71 226.68 604.71C118.67 604.71 29.01 519.31 31.01 414.13C33.66 273.05 141.24 215.58 226.68 53.44Z" id="d2zMQW7SlI"></path><path d="M226.68 53.44C317.43 210.26 422.35 308.93 422.35 414.13C422.35 519.32 334.69 604.71 226.68 604.71C118.67 604.71 29.01 519.31 31.01 414.13C33.66 273.05 141.24 215.58 226.68 53.44Z" id="aHiFVoTY1"></path><path d="M226.68 53.44C317.43 210.26 422.35 308.93 422.35 414.13C422.35 519.32 334.69 604.71 226.68 604.71C118.67 604.71 29.01 519.31 31.01 414.13C33.66 273.05 141.24 215.58 226.68 53.44Z" id="c1eRbfn8Yv"></path><path d="M226.68 53.44C317.43 210.26 422.35 308.93 422.35 414.13C422.35 519.32 334.69 604.71 226.68 604.71C118.67 604.71 29.01 519.31 31.01 414.13C33.66 273.05 141.24 215.58 226.68 53.44Z" id="aoYCdNHye"></path></defs><g><g><g><use xlink:href="#gsvGzbw35" opacity="1" fill="#97d8ff" fill-opacity="1"></use><g><use xlink:href="#gsvGzbw35" opacity="1" fill-opacity="0" stroke="#000000" stroke-width="1" stroke-opacity="0"></use></g></g><g><use xlink:href="#aCbzggpXG" opacity="1" fill="#000000" fill-opacity="0"></use><g><use xlink:href="#aCbzggpXG" opacity="1" fill-opacity="0" stroke="#000000" stroke-width="1" stroke-opacity="0"></use></g></g><g><use xlink:href="#cwdvurCc2" opacity="1" fill="#000000" fill-opacity="0"></use><g><use xlink:href="#cwdvurCc2" opacity="1" fill-opacity="0" stroke="#000000" stroke-width="1" stroke-opacity="0"></use></g></g><g><use xlink:href="#afAQyWqaZ" opacity="1" fill="#000000" fill-opacity="0"></use><g><use xlink:href="#afAQyWqaZ" opacity="1" fill-opacity="0" stroke="#000000" stroke-width="0" stroke-opacity="0"></use></g></g><g><use xlink:href="#d2zMQW7SlI" opacity="1" fill="#e5f5ff" fill-opacity="1"></use><g><use xlink:href="#d2zMQW7SlI" opacity="1" fill-opacity="0" stroke="#000000" stroke-width="1" stroke-opacity="0"></use></g></g><g><use xlink:href="#aHiFVoTY1" opacity="1" fill="#000000" fill-opacity="0"></use><g><use xlink:href="#aHiFVoTY1" opacity="1" fill-opacity="0" stroke="#000000" stroke-width="1" stroke-opacity="0"></use></g></g><g><use xlink:href="#c1eRbfn8Yv" opacity="1" fill="#000000" fill-opacity="0"></use><g><use xlink:href="#c1eRbfn8Yv" opacity="1" fill-opacity="0" stroke="#000000" stroke-width="1" stroke-opacity="0"></use></g></g><g><use xlink:href="#aoYCdNHye" opacity="1" fill="#000000" fill-opacity="0"></use><g><use xlink:href="#aoYCdNHye" opacity="1" fill-opacity="0" stroke="#000000" stroke-width="3" stroke-opacity="0"></use></g></g></g></g></svg>